<?xml version="1.0" encoding="UTF-8" standalone="no"?>
<svg
   xmlns:dc="http://purl.org/dc/elements/1.1/"
   xmlns:cc="http://creativecommons.org/ns#"
   xmlns:rdf="http://www.w3.org/1999/02/22-rdf-syntax-ns#"
   xmlns:svg="http://www.w3.org/2000/svg"
   xmlns="http://www.w3.org/2000/svg"
   xmlns:sodipodi="http://sodipodi.sourceforge.net/DTD/sodipodi-0.dtd"
   xmlns:inkscape="http://www.inkscape.org/namespaces/inkscape"
   width="91.44mm"
   height="91.44mm"
   version="1.1"
   style="shape-rendering:geometricPrecision; text-rendering:geometricPrecision; image-rendering:optimizeQuality; fill-rule:evenodd; clip-rule:evenodd"
   viewBox="0 0 9144 9144"
   id="svg13"
   sodipodi:docname="option.svg"
   inkscape:export-filename="C:\Users\morav\PycharmProjects\URO\option.png"
   inkscape:export-xdpi="11.111111"
   inkscape:export-ydpi="11.111111"
   inkscape:version="0.92.2 (5c3e80d, 2017-08-06)">
  <metadata
     id="metadata17">
    <rdf:RDF>
      <cc:Work
         rdf:about="">
        <dc:format>image/svg+xml</dc:format>
        <dc:type
           rdf:resource="http://purl.org/dc/dcmitype/StillImage" />
      </cc:Work>
    </rdf:RDF>
  </metadata>
  <sodipodi:namedview
     pagecolor="#ffffff"
     bordercolor="#666666"
     borderopacity="1"
     objecttolerance="10"
     gridtolerance="10"
     guidetolerance="10"
     inkscape:pageopacity="0"
     inkscape:pageshadow="2"
     inkscape:window-width="1680"
     inkscape:window-height="987"
     id="namedview15"
     showgrid="false"
     inkscape:zoom="0.68287035"
     inkscape:cx="92.989833"
     inkscape:cy="172.8"
     inkscape:window-x="-8"
     inkscape:window-y="-8"
     inkscape:window-maximized="1"
     inkscape:current-layer="svg13" />
  <defs
     id="defs4">
    <style
       type="text/css"
       id="style2">  .fil0 {fill:#F0F0F0} .fil1 {fill:#011627;fill-rule:nonzero}  </style>
  </defs>
  <path
     class="fil1"
     d="m 4594.1998,3292.3387 c 347.2687,6.3428 661.2377,150.6417 887.993,382.1541 229.9268,231.5125 371.0542,553.4099 369.4685,905.4357 -3.1714,353.6115 -149.056,672.3376 -382.1541,902.2643 -231.5125,229.9268 -553.4099,371.0542 -905.4357,369.4685 -353.6115,-3.1714 -672.3376,-149.056 -902.2643,-382.1541 -229.9268,-231.5125 -371.0542,-551.8242 -369.4685,-905.4357 v -14.2713 c 6.3428,-347.2687 150.6417,-661.2377 382.1541,-887.993 231.5125,-229.9268 551.8242,-371.0542 905.4357,-369.4685 z M 5670.8913,1237.2692 c 88.7993,30.1284 177.5986,63.4281 266.3979,99.8992 88.7993,38.0569 176.0129,79.2851 261.6408,123.6848 65.0138,34.8854 90.385,114.1705 55.4996,180.77 l -1.5857,3.1714 c -57.0853,103.0706 -93.5564,214.0697 -107.8278,328.2402 -14.2713,99.8992 -11.0999,199.7985 6.3428,298.112 147.4703,101.4849 283.8407,215.6554 407.5254,340.9258 123.6847,125.2705 236.2696,263.2265 334.5831,412.2825 98.3135,19.0284 199.7984,22.1998 299.6976,9.5142 114.1705,-12.6856 226.7553,-47.571 329.826,-103.0706 65.0137,-34.8854 145.8845,-11.0999 180.77,55.4996 l 1.5857,1.5857 c 44.3996,87.2135 84.0421,174.4271 118.9276,263.2264 36.4711,87.2136 68.1852,177.5986 98.3135,271.155 22.1998,71.3566 -17.4427,145.8846 -88.7993,168.0844 h -3.1714 c -112.5848,33.2998 -217.2411,85.6279 -309.2118,155.3988 -79.2851,60.2567 -147.4703,133.1989 -204.5556,215.6554 12.6856,74.528 23.7856,150.6417 31.7141,226.7554 9.5142,95.1421 14.2713,190.2842 14.2713,283.8406 0,99.8992 -4.7571,201.3841 -15.857,302.869 -9.5143,84.0422 -22.1999,166.4987 -38.0569,245.7838 55.4996,82.4565 123.6848,155.3988 202.9698,217.2411 90.385,69.7709 193.4557,125.2705 307.6262,158.5702 69.7709,22.1998 110.9991,96.7278 88.7993,168.0844 0,3.1714 -1.5857,6.3428 -3.1714,9.5142 -28.5427,87.2136 -61.8424,176.0129 -98.3135,263.2265 -38.0569,88.7993 -79.2851,176.0129 -123.6848,260.0551 -34.8854,66.5995 -115.7562,91.9707 -180.77,57.0853 l -7.9285,-4.7572 c -101.4849,-53.9138 -210.8983,-90.3849 -323.4831,-104.6563 -99.8992,-14.2713 -199.7985,-11.0999 -298.112,6.3428 -101.4849,147.4703 -215.6554,283.8407 -340.9258,407.5254 -125.2705,123.6847 -263.2265,236.2696 -412.2825,334.5831 -19.0284,98.3135 -22.1998,199.7984 -9.5142,298.1119 12.6856,115.7562 47.571,226.7553 103.0706,331.4117 34.8854,65.0137 11.0999,145.8845 -55.4996,180.77 l -1.5857,1.5857 c -87.2135,42.8139 -174.4271,84.0421 -263.2264,118.9276 -87.2136,36.4711 -179.1843,69.7709 -271.155,98.3135 -71.3566,22.1998 -145.8846,-17.4427 -168.0844,-88.7993 v -3.1714 c -33.2998,-114.1705 -87.2136,-218.8268 -155.3988,-309.2118 -60.2567,-79.2851 -133.1989,-147.4703 -215.6554,-204.5556 -74.528,12.6856 -150.6417,23.7856 -226.7554,31.7141 -95.1421,9.5142 -190.2842,14.2713 -283.8406,14.2713 -99.8992,0 -201.3841,-4.7571 -302.869,-15.857 -84.0422,-9.5143 -166.4987,-22.1999 -245.7838,-38.0569 -82.4565,55.4996 -155.3988,123.6848 -217.2411,202.9698 -69.7709,88.7993 -125.2705,193.4557 -158.5702,307.6262 -22.1998,69.7709 -96.7278,110.9991 -168.0844,88.7993 l -9.5142,-3.1714 c -87.2136,-28.5427 -176.0129,-61.8424 -263.2265,-98.3135 -88.7993,-38.0569 -176.0129,-79.2851 -260.0551,-123.6848 -66.5995,-34.8854 -91.9707,-115.7562 -57.0853,-180.77 l 1.5857,-3.1714 c 57.0853,-103.0706 93.5564,-214.0697 107.8278,-328.2402 14.2713,-99.8992 11.0999,-199.7985 -6.3428,-298.112 -147.4703,-101.4849 -283.8407,-215.6554 -407.5254,-340.9258 -123.6847,-125.2705 -236.2696,-263.2265 -334.5831,-412.2825 -98.3135,-19.0284 -199.7984,-22.1998 -298.1119,-9.5142 -115.7562,12.6856 -226.7553,47.571 -331.4117,103.0706 -65.0137,34.8854 -145.8845,11.0999 -180.77,-55.4996 l -1.5857,-1.5857 c -42.8139,-87.2135 -84.0421,-174.4271 -118.9276,-263.2264 -36.4711,-87.2136 -69.7709,-177.5986 -98.3135,-271.155 -22.1998,-71.3566 17.4427,-145.8846 88.7993,-168.0844 h 3.1714 c 112.5848,-33.2998 217.2411,-87.2136 309.2118,-155.3988 79.2851,-60.2567 147.4703,-133.1989 204.5556,-215.6554 -12.6856,-74.528 -23.7856,-150.6417 -31.7141,-226.7554 -9.5142,-95.1421 -14.2713,-190.2842 -14.2713,-283.8406 0,-99.8992 4.7571,-201.3841 15.857,-302.869 9.5143,-84.0422 22.1999,-166.4987 38.0569,-245.7838 -55.4996,-82.4565 -123.6848,-155.3988 -202.9698,-217.2411 -88.7993,-69.7709 -193.4557,-125.2705 -307.6262,-158.5702 -69.7709,-22.1998 -110.9991,-96.7278 -88.7993,-168.0844 l 3.1714,-9.5142 c 28.5427,-87.2136 61.8424,-176.0129 98.3135,-263.2265 38.0569,-88.7993 79.2851,-176.0129 123.6848,-261.6408 34.8854,-65.0138 115.7562,-90.385 180.77,-55.4996 l 3.1714,1.5857 c 103.0706,57.0853 214.0697,93.5564 328.2402,107.8278 99.8992,14.2713 199.7985,11.0999 298.112,-6.3428 101.4849,-147.4703 215.6554,-283.8407 340.9258,-407.5254 125.2705,-123.6847 263.2265,-236.2696 412.2825,-334.5831 19.0284,-98.3135 22.1998,-199.7984 9.5142,-299.6976 -12.6856,-114.1705 -47.571,-226.7553 -103.0706,-329.826 -34.8854,-65.0137 -11.0999,-145.8845 55.4996,-180.77 l 1.5857,-1.5857 c 87.2135,-42.8139 174.4271,-84.0421 261.6407,-118.9276 88.7993,-36.4711 179.1843,-68.1852 272.7407,-98.3135 71.3566,-22.1998 145.8846,17.4427 168.0844,88.7993 v 3.1714 c 33.2998,112.5848 87.2136,217.2411 155.3988,309.2118 60.2567,79.2851 133.1989,147.4703 215.6554,204.5556 74.528,-12.6856 150.6417,-23.7856 226.7554,-31.7141 95.1421,-9.5142 190.2842,-14.2713 283.8406,-14.2713 99.8992,0 201.3841,4.7571 302.869,15.857 84.0422,9.5143 166.4987,22.1999 245.7838,38.0569 82.4565,-55.4996 155.3988,-123.6848 217.2411,-202.9698 69.7709,-90.385 125.2705,-193.4557 158.5702,-306.0405 22.1998,-71.3566 96.7278,-112.5848 168.0844,-90.385 z m 161.7416,347.2687 c -41.2283,-17.4427 -84.0422,-34.8854 -126.8561,-50.7424 -41.2283,95.1421 -93.5565,182.3557 -156.9845,263.2264 -88.7993,114.1706 -198.2127,210.8984 -323.4832,287.0121 -30.1283,23.7855 -69.7709,33.2997 -109.4134,23.7855 -90.385,-19.0284 -179.1843,-34.8855 -269.5693,-44.3997 -88.7993,-9.5142 -179.1843,-14.2713 -274.3264,-14.2713 -90.385,0 -176.0129,4.7571 -258.4694,12.6856 -82.4565,7.9285 -163.3273,20.6142 -242.6124,36.4712 -34.8854,9.5142 -74.5279,6.3428 -107.8277,-14.2713 -126.8561,-79.2851 -239.4409,-180.77 -329.8259,-299.6977 -61.8424,-80.8708 -114.1706,-169.6701 -153.8131,-264.8122 -42.814,14.2714 -85.6279,31.7141 -128.4418,49.1568 -42.814,15.857 -84.0422,34.8854 -125.2705,53.9138 38.0569,96.7279 63.4281,196.6271 74.528,298.112 19.0284,147.4702 9.5142,298.1119 -26.9569,443.9965 h -1.5857 c -7.9285,31.714 -26.957,60.2566 -57.0853,79.2851 -149.056,95.1421 -288.5977,207.7269 -413.8682,331.4116 -126.8561,125.2705 -239.4409,261.6408 -336.1687,409.1111 -19.0284,28.5426 -47.5711,49.1567 -82.4565,57.0852 -145.8846,34.8855 -296.5262,42.814 -443.9965,23.7856 -101.4849,-14.2714 -201.3841,-41.2283 -298.1119,-80.8708 -19.0285,42.8139 -38.0569,84.0422 -55.4996,126.8561 -17.4427,41.2283 -34.8854,84.0422 -50.7424,126.8561 95.1421,41.2283 182.3557,93.5565 263.2264,156.9845 115.7563,90.385 214.0698,199.7984 290.1835,325.0689 20.6141,30.1283 30.1283,68.1852 20.6141,107.8277 -19.0284,88.7993 -34.8855,179.1843 -44.3997,269.5693 -9.5142,88.7993 -14.2713,179.1843 -14.2713,274.3264 0,90.385 4.7571,176.0129 12.6856,258.4694 7.9285,82.4565 20.6142,163.3273 36.4712,244.1981 9.5142,33.2997 6.3428,72.9422 -14.2713,106.242 -79.2851,126.8561 -180.77,239.4409 -299.6977,329.8259 -82.4565,61.8424 -171.2558,114.1706 -266.3979,153.8131 15.8571,42.814 31.7141,85.6279 49.1568,128.4418 17.4427,42.814 36.4711,84.0422 55.4995,125.2705 96.7279,-38.0569 196.6271,-63.4281 298.112,-76.1137 147.4702,-17.4427 298.1119,-7.9285 443.9965,28.5426 v 1.5857 c 31.714,7.9285 60.2566,26.957 79.2851,57.0853 96.7278,149.056 207.7269,288.5977 331.4116,413.8682 125.2705,126.8561 261.6408,239.4409 409.1111,336.1687 28.5426,19.0284 49.1567,47.5711 57.0852,82.4565 36.4712,145.8846 42.814,296.5262 23.7856,443.9965 -14.2714,101.4849 -41.2283,201.3841 -80.8708,298.1119 42.8139,19.0285 84.0422,38.0569 126.8561,55.4996 41.2283,17.4427 84.0422,34.8854 126.8561,50.7424 41.2283,-95.1421 93.5565,-182.3557 156.9845,-263.2264 90.385,-115.7563 199.7984,-214.0698 325.0689,-290.1835 30.1283,-20.6141 68.1852,-30.1283 107.8277,-20.6141 88.7993,19.0284 179.1843,34.8855 269.5693,44.3997 88.7993,9.5142 179.1843,14.2713 274.3264,14.2713 90.385,0 176.0129,-4.7571 258.4694,-12.6856 82.4565,-7.9285 163.3273,-20.6142 244.1981,-36.4712 34.8854,-9.5142 72.9422,-6.3428 106.242,14.2713 126.8561,77.6994 239.4409,180.77 329.8259,299.6977 61.8424,82.4565 114.1706,171.2558 153.8131,266.3979 42.814,-15.8571 85.6279,-31.7141 128.4418,-49.1568 42.814,-17.4427 84.0422,-36.4711 125.2705,-55.4995 -38.0569,-96.7279 -63.4281,-196.6271 -74.528,-298.112 -19.0284,-147.4702 -9.5142,-298.1119 26.9569,-443.9965 h 1.5857 c 7.9285,-31.714 26.957,-60.2566 57.0853,-79.2851 149.056,-96.7278 288.5977,-207.7269 413.8682,-331.4116 126.8561,-125.2705 239.4409,-261.6408 336.1687,-409.1111 19.0284,-28.5426 47.5711,-49.1567 82.4565,-57.0852 145.8846,-36.4712 296.5262,-42.814 443.9965,-23.7856 101.4849,14.2714 201.3841,41.2283 298.1119,80.8708 19.0285,-42.8139 38.0569,-84.0422 55.4996,-126.8561 17.4427,-41.2283 34.8854,-84.0422 50.7424,-126.8561 -95.1421,-41.2283 -182.3557,-93.5565 -263.2264,-156.9845 -115.7563,-90.385 -214.0698,-201.3841 -290.1835,-325.0689 -20.6141,-30.1283 -30.1283,-68.1852 -20.6141,-107.8277 19.0284,-90.385 34.8855,-179.1843 44.3997,-269.5693 9.5142,-88.7993 14.2713,-179.1843 14.2713,-274.3264 0,-90.385 -4.7571,-176.0129 -12.6856,-258.4694 -7.9285,-82.4565 -20.6142,-163.3273 -36.4712,-244.1981 -9.5142,-33.2997 -6.3428,-72.9422 14.2713,-106.242 79.2851,-126.8561 180.77,-239.4409 299.6977,-329.8259 80.8708,-61.8424 169.6701,-114.1706 266.3979,-153.8131 -15.8571,-42.814 -33.2998,-85.6279 -49.1568,-128.4418 -17.4427,-42.814 -36.4711,-84.0422 -55.4995,-125.2705 -96.7279,38.0569 -196.6271,63.4281 -298.112,74.528 -147.4702,19.0284 -298.1119,9.5142 -443.9965,-26.9569 v -1.5857 c -31.714,-7.9285 -60.2566,-26.957 -79.2851,-57.0853 -96.7278,-149.056 -207.7269,-288.5977 -331.4116,-413.8682 -125.2705,-126.8561 -261.6408,-239.4409 -409.1111,-336.1687 -28.5426,-19.0284 -49.1567,-47.5711 -57.0852,-82.4565 -36.4712,-145.8846 -42.814,-296.5262 -23.7856,-443.9965 14.2714,-101.4849 41.2283,-201.3841 80.8708,-298.1119 -41.2282,-19.0285 -84.0422,-38.0569 -126.8561,-55.4996 z m -540.7243,2277.0677 c -179.1843,-182.3557 -426.5538,-296.5262 -702.4659,-301.2833 h -9.5142 c -280.6692,-1.5857 -534.3815,109.4134 -718.3229,291.7691 -182.3557,179.1843 -296.5262,426.5538 -301.2833,702.4659 v 9.5142 c -1.5857,280.6692 109.4134,534.3815 291.7691,718.3229 182.3557,183.9414 434.4823,299.6976 711.9801,301.2833 280.6692,1.5857 534.3815,-109.4134 718.3229,-291.7691 183.9414,-182.3557 299.6976,-434.4823 301.2833,-711.9801 1.5857,-280.6692 -109.4134,-534.3815 -291.7691,-718.3229 z"
     id="path9"
     inkscape:connector-curvature="0"
     style="fill:#011627;fill-rule:nonzero;stroke-width:1.5857017" />
</svg>
