<?xml version="1.0" encoding="UTF-8" standalone="no"?>
<svg
   xmlns:dc="http://purl.org/dc/elements/1.1/"
   xmlns:cc="http://creativecommons.org/ns#"
   xmlns:rdf="http://www.w3.org/1999/02/22-rdf-syntax-ns#"
   xmlns:svg="http://www.w3.org/2000/svg"
   xmlns="http://www.w3.org/2000/svg"
   xmlns:sodipodi="http://sodipodi.sourceforge.net/DTD/sodipodi-0.dtd"
   xmlns:inkscape="http://www.inkscape.org/namespaces/inkscape"
   width="91.44mm"
   height="91.44mm"
   version="1.1"
   style="shape-rendering:geometricPrecision; text-rendering:geometricPrecision; image-rendering:optimizeQuality; fill-rule:evenodd; clip-rule:evenodd"
   viewBox="0 0 9144 9144"
   id="svg13"
   sodipodi:docname="shutdown.svg"
   inkscape:version="0.92.2 (5c3e80d, 2017-08-06)"
   inkscape:export-filename="C:\Users\morav\PycharmProjects\URO\shutdown.png"
   inkscape:export-xdpi="17.278913"
   inkscape:export-ydpi="17.278913">
  <metadata
     id="metadata17">
    <rdf:RDF>
      <cc:Work
         rdf:about="">
        <dc:format>image/svg+xml</dc:format>
        <dc:type
           rdf:resource="http://purl.org/dc/dcmitype/StillImage" />
        <dc:title />
      </cc:Work>
    </rdf:RDF>
  </metadata>
  <sodipodi:namedview
     pagecolor="#ffffff"
     bordercolor="#666666"
     borderopacity="1"
     objecttolerance="10"
     gridtolerance="10"
     guidetolerance="10"
     inkscape:pageopacity="0"
     inkscape:pageshadow="2"
     inkscape:window-width="1920"
     inkscape:window-height="1017"
     id="namedview15"
     showgrid="false"
     inkscape:zoom="0.68287035"
     inkscape:cx="-251.87797"
     inkscape:cy="172.8"
     inkscape:window-x="1672"
     inkscape:window-y="-8"
     inkscape:window-maximized="1"
     inkscape:current-layer="svg13" />
  <defs
     id="defs4">
    <style
       type="text/css"
       id="style2">  .fil0 {fill:#F0F0F0} .fil1 {fill:#011627;fill-rule:nonzero}  </style>
  </defs>
  <path
     class="fil1"
     d="m 4572,6777 c -609,0 -1160,-247 -1559,-646 -399,-399 -646,-950 -646,-1559 0,-609 247,-1160 646,-1559 399,-399 950,-646 1559,-646 609,0 1160,247 1559,646 399,399 646,950 646,1559 0,609 -247,1160 -646,1559 -399,399 -950,646 -1559,646 z m -88,-3377 c 0,-49 39,-88 88,-88 49,0 88,39 88,88 v 847 c 0,49 -39,88 -88,88 -49,0 -88,-39 -88,-88 z m -396,133 c 44,-20 97,-1 117,43 20,44 1,97 -43,117 -52,24 -101,52 -147,85 -46,31 -89,67 -128,108 h -1 v 0 l -1,2 c -2,2 -3,3 -5,4 -185,189 -278,434 -278,680 0,248 94,495 282,684 h 1 l 1,2 2,2 c 2,1 3,2 4,4 189,185 434,278 680,278 248,0 495,-94 684,-282 v 0 l 2,-2 2,-2 c 1,-2 2,-3 4,-4 185,-189 278,-434 278,-680 0,-248 -94,-495 -282,-684 v 0 l -2,-2 c -2,-1 -3,-3 -5,-5 -38,-38 -80,-73 -124,-103 -46,-33 -95,-61 -147,-85 -44,-20 -63,-73 -43,-117 20,-44 73,-63 117,-43 60,28 119,62 174,101 53,37 102,78 148,123 1,2 3,3 4,5 l 2,2 v 0 0 c 223,223 335,516 335,808 0,290 -110,580 -330,803 -1,2 -3,4 -5,6 l -2,1 -1,2 h -1 v 0 c -223,223 -516,335 -808,335 -290,0 -580,-110 -803,-330 -2,-1 -4,-3 -5,-5 l -2,-2 -2,-1 v -1 0 c -223,-223 -335,-516 -335,-808 0,-290 110,-580 330,-803 1,-2 3,-4 5,-5 l 2,-2 v 0 c 47,-47 98,-90 152,-128 55,-39 114,-73 174,-101 z m -950,2473 c 367,367 874,594 1434,594 560,0 1067,-227 1434,-594 367,-367 594,-874 594,-1434 0,-560 -227,-1067 -594,-1434 -367,-367 -874,-594 -1434,-594 -560,0 -1067,227 -1434,594 -367,367 -594,874 -594,1434 0,560 227,1067 594,1434 z"
     id="path9"
     inkscape:connector-curvature="0"
     style="fill:#011627;fill-rule:nonzero" />
</svg>
